<?xml version="1.0" encoding="iso-8859-1"?>
<!-- Generator: Adobe Illustrator 19.0.0, SVG Export Plug-In . SVG Version: 6.00 Build 0)  -->
<svg version="1.1" id="Capa_1" xmlns="http://www.w3.org/2000/svg" xmlns:xlink="http://www.w3.org/1999/xlink" x="0px" y="0px"
	 viewBox="0 0 512 512" style="enable-background:new 0 0 512 512;" xml:space="preserve">
<g>
	<path style="fill:#936642;" d="M494.345,238.345h8.828c4.869-0.015,8.813-3.958,8.828-8.828V88.276
		c0.005-18.731-7.434-36.697-20.679-49.942c-13.245-13.245-31.211-20.684-49.942-20.679H70.621
		c-18.731-0.005-36.697,7.434-49.942,20.679S-0.005,69.545,0,88.276v141.241c0.015,4.869,3.958,8.813,8.828,8.828h8.828V476.69
		c0.029,9.739,7.916,17.626,17.655,17.655H476.69c9.739-0.029,17.626-7.916,17.655-17.655V238.345z"/>
	
		<circle style="fill:none;stroke:#000000;stroke-width:2;stroke-linecap:round;stroke-linejoin:round;" cx="256" cy="247.172" r="26.483"/>
	<path id="SVGCleanerId_0" style="fill:#936642;" d="M335.448,88.276H194.207c-4.875,0-8.828-3.952-8.828-8.828
		s3.952-8.828,8.828-8.828h141.241c4.875,0,8.828,3.952,8.828,8.828S340.324,88.276,335.448,88.276z"/>
	<path id="SVGCleanerId_1" style="fill:#936642;" d="M229.517,123.586h-79.448c-4.875,0-8.828-3.952-8.828-8.828
		c0-4.875,3.952-8.828,8.828-8.828h79.448c4.875,0,8.828,3.952,8.828,8.828C238.345,119.634,234.393,123.586,229.517,123.586z"/>
	<path id="SVGCleanerId_2" style="fill:#936642;" d="M353.103,123.586h-88.276c-4.875,0-8.828-3.952-8.828-8.828
		c0-4.875,3.952-8.828,8.828-8.828h88.276c4.875,0,8.828,3.952,8.828,8.828C361.931,119.634,357.979,123.586,353.103,123.586z"/>
	<g>
		<g>
			<path style="fill:#6D5A61;" d="M335.448,370.759H194.207c-4.875,0-8.828-3.952-8.828-8.828s3.952-8.828,8.828-8.828h141.241
				c4.875,0,8.828,3.952,8.828,8.828S340.324,370.759,335.448,370.759z"/>
			<path style="fill:#6D5A61;" d="M229.517,406.069h-79.448c-4.875,0-8.828-3.952-8.828-8.828s3.952-8.828,8.828-8.828h79.448
				c4.875,0,8.828,3.952,8.828,8.828S234.393,406.069,229.517,406.069z"/>
			<path style="fill:#6D5A61;" d="M353.103,406.069h-88.276c-4.875,0-8.828-3.952-8.828-8.828s3.952-8.828,8.828-8.828h88.276
				c4.875,0,8.828,3.952,8.828,8.828S357.979,406.069,353.103,406.069z"/>
		</g>
		<path style="fill:#D69564;" d="M123.586,17.655c-70.621,0-70.621,61.793-70.621,61.793v158.897H8.828
			c-4.869-0.015-8.813-3.958-8.828-8.828V88.276c-0.005-18.731,7.434-36.697,20.679-49.942S51.889,17.65,70.621,17.655H123.586z"/>
		<path style="fill:#F4CD1E;" d="M194.207,17.655c-70.621,0-70.621,61.793-70.621,61.793v158.897H52.966V79.448
			c0,0,0-61.793,70.621-61.793H194.207z"/>
		<path style="fill:#D69564;" d="M388.414,79.448v158.897h-61.793v-35.31c-0.028-9.739-7.916-17.627-17.655-17.655H203.034
			c-9.739,0.028-17.627,7.916-17.655,17.655v35.31h-61.793V79.448c0,0,0-61.793,70.621-61.793h123.586
			C388.414,17.655,388.414,79.448,388.414,79.448z"/>
		<path style="fill:#F4CD1E;" d="M459.034,79.448v158.897h-70.621V79.448c0,0,0-61.793-70.621-61.793h70.621
			C459.034,17.655,459.034,79.448,459.034,79.448z"/>
		<path style="fill:#D69564;" d="M512,88.276v141.241c-0.015,4.869-3.958,8.813-8.828,8.828h-44.138V79.448
			c0,0,0-61.793-70.621-61.793h52.966c18.731-0.005,36.697,7.434,49.942,20.679C504.566,51.579,512.005,69.545,512,88.276z"/>
		<circle style="fill:#3A3E48;" cx="256" cy="247.172" r="26.483"/>
		<g>
			<rect x="388.414" y="238.345" style="fill:#F6AB27;" width="70.621" height="256"/>
			<path style="fill:#F6AB27;" d="M308.966,185.379H203.034c-9.739,0.028-17.627,7.916-17.655,17.655v70.621
				c-0.003,9.366,3.717,18.348,10.339,24.971c6.623,6.623,15.605,10.342,24.971,10.339h70.621
				c9.366,0.003,18.348-3.717,24.971-10.339c6.623-6.623,10.342-15.605,10.339-24.971v-70.621
				C326.592,193.296,318.704,185.408,308.966,185.379L308.966,185.379z M256,273.655c-14.626,0-26.483-11.857-26.483-26.483
				c0-14.626,11.857-26.483,26.483-26.483c14.626,0,26.483,11.857,26.483,26.483c0.009,7.027-2.778,13.768-7.746,18.736
				C269.768,270.877,263.027,273.665,256,273.655L256,273.655z"/>
			<rect x="52.966" y="238.345" style="fill:#F6AB27;" width="70.621" height="256"/>
		</g>
	</g>
	<g>
		<path id="SVGCleanerId_0_1_" style="fill:#936642;" d="M335.448,88.276H194.207c-4.875,0-8.828-3.952-8.828-8.828
			s3.952-8.828,8.828-8.828h141.241c4.875,0,8.828,3.952,8.828,8.828S340.324,88.276,335.448,88.276z"/>
	</g>
	<g>
		<path id="SVGCleanerId_1_1_" style="fill:#936642;" d="M229.517,123.586h-79.448c-4.875,0-8.828-3.952-8.828-8.828
			c0-4.875,3.952-8.828,8.828-8.828h79.448c4.875,0,8.828,3.952,8.828,8.828C238.345,119.634,234.393,123.586,229.517,123.586z"/>
	</g>
	<g>
		<path id="SVGCleanerId_2_1_" style="fill:#936642;" d="M353.103,123.586h-88.276c-4.875,0-8.828-3.952-8.828-8.828
			c0-4.875,3.952-8.828,8.828-8.828h88.276c4.875,0,8.828,3.952,8.828,8.828C361.931,119.634,357.979,123.586,353.103,123.586z"/>
	</g>
	<g>
		<path style="fill:#6E4D32;" d="M335.448,370.759H194.207c-4.875,0-8.828-3.952-8.828-8.828s3.952-8.828,8.828-8.828h141.241
			c4.875,0,8.828,3.952,8.828,8.828S340.324,370.759,335.448,370.759z"/>
		<path style="fill:#6E4D32;" d="M229.517,406.069h-79.448c-4.875,0-8.828-3.952-8.828-8.828s3.952-8.828,8.828-8.828h79.448
			c4.875,0,8.828,3.952,8.828,8.828S234.393,406.069,229.517,406.069z"/>
		<path style="fill:#6E4D32;" d="M353.103,406.069h-88.276c-4.875,0-8.828-3.952-8.828-8.828s3.952-8.828,8.828-8.828h88.276
			c4.875,0,8.828,3.952,8.828,8.828S357.979,406.069,353.103,406.069z"/>
	</g>
</g>
<g>
</g>
<g>
</g>
<g>
</g>
<g>
</g>
<g>
</g>
<g>
</g>
<g>
</g>
<g>
</g>
<g>
</g>
<g>
</g>
<g>
</g>
<g>
</g>
<g>
</g>
<g>
</g>
<g>
</g>
</svg>
