<?xml version="1.0" encoding="iso-8859-1"?>
<!-- Generator: Adobe Illustrator 19.0.0, SVG Export Plug-In . SVG Version: 6.00 Build 0)  -->
<svg version="1.1" id="Layer_1" xmlns="http://www.w3.org/2000/svg" xmlns:xlink="http://www.w3.org/1999/xlink" x="0px" y="0px"
	 viewBox="0 0 473.931 473.931" style="enable-background:new 0 0 473.931 473.931;" xml:space="preserve">
<circle style="fill:#49A0AE;" cx="236.966" cy="236.966" r="236.966"/>
<g>
	<path style="fill:#E9C29C;" d="M379.089,234.911c0,79.995-64.807,144.81-144.772,144.81S89.544,314.907,89.544,234.911
		c0-79.935,64.807-144.761,144.772-144.761S379.089,154.976,379.089,234.911z"/>
	<path style="fill:#E9C29C;" d="M263.016,349.615c0.659-2.773,3.465-4.456,6.219-3.824c0.453,0.101,22.129,5.134,49.036,7.068
		c35.318-25.19,58.832-65.825,60.673-112.077c-11.401-0.483-24.767,0.767-39.67,2.17c-14.469,1.366-30.87,2.915-47.794,2.915
		c-2.859,0-5.16-2.309-5.16-5.164s2.301-5.164,5.16-5.164c16.445,0,31.884-1.463,46.824-2.874
		c14.69-1.373,28.422-2.645,40.677-2.148c-2.324-77.903-66.177-140.372-144.664-140.372c-79.965,0-144.772,64.826-144.772,144.761
		c0,79.995,64.807,144.81,144.772,144.81c25.182,0,48.864-6.44,69.484-17.743c-20.374-2.294-35.401-5.777-36.965-6.148
		C264.067,355.168,262.35,352.395,263.016,349.615z"/>
	<path style="fill:#E9C29C;" d="M269.235,345.791c-2.754-0.632-5.56,1.051-6.219,3.824c-0.666,2.776,1.051,5.549,3.82,6.215
		c1.564,0.37,16.591,3.85,36.965,6.148c5.014-2.754,9.845-5.818,14.469-9.122C291.363,350.925,269.687,345.892,269.235,345.791z"/>
</g>
<ellipse style="fill:#343433;" cx="288.939" cy="247.405" rx="19.839" ry="20.954"/>
<path style="fill:#FFFFFF;" d="M303.049,239.465c0,4.614-3.543,8.385-7.936,8.385c-4.348,0-7.906-3.772-7.906-8.385
	c0-4.644,3.558-8.382,7.906-8.382C299.505,231.084,303.049,234.822,303.049,239.465z"/>
<ellipse style="fill:#343433;" cx="180.577" cy="247.405" rx="19.839" ry="20.954"/>
<path style="fill:#FFFFFF;" d="M194.508,239.465c0,4.614-3.543,8.385-7.936,8.385c-4.378,0-7.921-3.772-7.921-8.385
	c0-4.644,3.543-8.382,7.921-8.382C190.964,231.084,194.508,234.822,194.508,239.465z"/>
<path style="fill:#6B491E;" d="M379.089,234.911l-98.711-88.807c0,0-46.413,2.144-102.468,27.487
	c-54.057,24.445-88.365,61.32-88.365,61.32c0-79.935,64.807-144.761,144.772-144.761S379.089,154.976,379.089,234.911z"/>
<g>
	<path style="fill:#5A5A5A;" d="M118.76,233.823H89.563c0,0.367-0.022,0.722-0.022,1.089c0,6.417,0.453,12.722,1.265,18.915h27.955
		V233.823z"/>
	<path style="fill:#5A5A5A;" d="M379.066,233.823h-30.585v20.003h29.343c0.804-6.189,1.265-12.497,1.265-18.915
		C379.089,234.545,379.066,234.189,379.066,233.823z"/>
</g>
<g style="opacity:0.6;">
	<path style="fill:#D8E4E1;" d="M185.704,294.02c0,0,24.067,6.174,48.329,6.174c24.247,0,46.802-6.174,46.802-6.174l-46.892-73.541
		L185.704,294.02z"/>
</g>
<g style="opacity:0.8;">
	<path style="fill:#CAD8D4;" d="M252.528,294.903c0,6.107-10.896,7.921-18.623,7.921l0,0c-7.723,0-18.634-1.815-18.634-7.921
		l7.551-47.06c0-6.107,3.36-11.068,11.087-11.068l0,0c7.723,0,11.079,4.962,11.079,11.068L252.528,294.903z"/>
</g>
<g style="opacity:0.8;">
	<path style="fill:#BDD2CE;" d="M233.909,302.824L233.909,302.824c-7.723,0-18.634-1.815-18.634-7.921l7.551-47.06
		c0-6.107,3.36-11.068,11.087-11.068l0,0v66.05H233.909z"/>
</g>
<g style="opacity:0.6;">
	<path style="fill:#ECECEC;" d="M350.281,208.989l-7.162-6.443c-6.05-4.876-20.037-14.612-51.625-15.584v-0.052h-2.017
		c-2.11-0.041-4.277-0.041-6.496,0h-103.22c-13.549-0.262-24.321,1.096-32.916,3.162c-14.039,8.539-25.863,17.242-35.064,24.711
		c-0.079,0.973-0.146,2.017-0.198,3.229c-0.554,13.272,3.143,2.743,8.542-0.876c5.384-3.618,33.751-18.855,87.726-7.091
		c6.503,1.418,40.546,1.418,47.041,0c53.971-11.768,82.334,3.472,87.726,7.091c5.392,3.622,9.216,12.374,8.419-1.62
		C350.865,212.491,350.61,210.429,350.281,208.989z"/>
</g>
<path style="fill:#377EC0;" d="M353.462,211.278c-4.939-3.903-24.527-16.55-59.913-17.672v-0.052h-1.979
	c-2.107-0.049-4.254-0.049-6.462,0H182.785c-40.737-0.823-63.034,13.519-68.34,17.721c-7.076,5.605-1.71,52.179,4.142,62.428
	c5.852,10.241,36.576,26.331,56.325,26.574c11.416,0.138,28.033-19.349,40.931-40.576c2.507-3.398,10.013-12.475,18.181-12.475
	c10.043,0,18.739,13.732,18.739,13.732l-0.03-0.123c12.789,20.782,29.044,39.577,40.254,39.442
	c19.745-0.24,50.461-16.329,56.31-26.574C355.164,263.457,360.526,216.884,353.462,211.278z M174.512,284.015
	c-13.74-0.168-35.109-11.349-39.18-18.481c-4.071-7.117-7.798-39.509-2.881-43.412c4.913-3.895,30.795-20.292,80.047-7.629
	c5.919,1.523,4.801,5.197,3.558,11.876C212.831,243.488,188.244,284.19,174.512,284.015z M332.568,265.534
	c-4.071,7.132-25.448,18.316-39.173,18.481c-13.74,0.176-38.331-40.527-41.56-57.646c-1.25-6.679-2.361-10.353,3.581-11.876
	c49.242-12.662,75.112,3.734,80.033,7.629C340.358,226.025,336.639,258.413,332.568,265.534z"/>
<path style="fill:#D8E4E1;" d="M172.461,283.891c-12.445-3.398-27.363-10.488-36.651-17.68
	C140.511,272.999,159.189,282.795,172.461,283.891z"/>
<g style="opacity:0.6;">
	<path style="fill:#D8E4E1;" d="M216.06,226.369c1.242-6.679,2.361-10.353-3.558-11.876c-49.249-12.662-75.135,3.734-80.047,7.629
		c-4.917,3.903-1.19,36.291,2.881,43.412c0.123,0.221,0.322,0.453,0.475,0.681c9.287,7.192,24.205,14.279,36.651,17.68
		c0.696,0.067,1.388,0.12,2.054,0.123C188.244,284.19,212.831,243.488,216.06,226.369z"/>
</g>
<path style="fill:#D8E4E1;" d="M332.07,266.241c-9.261,7.184-24.108,14.267-36.542,17.65
	C308.778,282.75,327.34,273.01,332.07,266.241z"/>
<g style="opacity:0.6;">
	<path style="fill:#D8E4E1;" d="M335.445,222.122c-4.917-3.895-30.791-20.292-80.032-7.629c-5.942,1.523-4.831,5.197-3.581,11.876
		c3.229,17.119,27.824,57.821,41.56,57.646c0.688-0.007,1.411-0.06,2.133-0.123c12.43-3.383,27.281-10.466,36.542-17.65
		c0.168-0.236,0.367-0.479,0.498-0.707C336.639,258.413,340.358,226.025,335.445,222.122z"/>
</g>
<path style="fill:#5A5A5A;" d="M342.191,218.066c-3.895-3.083-19.061-12.875-46.357-14.215v-0.12h-3.817
	c-1.732-0.041-3.51-0.041-5.321,0H181.202c-1.826-0.041-3.596-0.041-5.321,0h-2.638v0.067
	c-28.033,1.111-43.584,11.139-47.532,14.267c-5.706,4.546-1.381,42.229,3.353,50.521c4.737,8.295,29.605,21.313,45.59,21.519
	c12.307,0.15,32.044-27.82,42.233-49.818l-0.067,0.329c0,0,7.207-17.56,17.212-17.56c7.244,0,13.01,9.205,15.663,14.279
	c9.691,22.353,30.694,52.923,43.543,52.774c15.981-0.206,40.86-13.223,45.59-21.519
	C343.565,260.296,347.913,222.612,342.191,218.066z M216.06,226.369c-3.229,17.119-27.816,57.821-41.549,57.646
	c-13.74-0.168-35.109-11.349-39.18-18.481c-4.071-7.117-7.798-39.509-2.881-43.412c4.913-3.895,30.795-20.292,80.047-7.629
	C218.422,216.016,217.303,219.69,216.06,226.369z M332.568,265.534c-4.071,7.132-25.448,18.316-39.173,18.481
	c-13.74,0.176-38.331-40.527-41.56-57.646c-1.25-6.679-2.361-10.353,3.581-11.876c49.242-12.662,75.112,3.734,80.033,7.629
	C340.358,226.025,336.639,258.413,332.568,265.534z"/>
<path style="fill:#525252;" d="M416.435,241.276c-8.718-7.925-20.595-11.936-37.373-12.628l-2.009-0.079l0.094,3.106
	c0.037,1.074,0.075,2.151,0.075,3.237c0,1.946-0.067,3.865-0.146,5.788l-0.079,1.871l1.871,0.079
	c13.018,0.561,21.945,3.427,28.093,9.029c9.04,8.224,13.433,23.771,13.433,47.528c0,15.689-5.291,27.509-16.179,36.112
	c-1.227,0.973-17.818,12.7-42.607,15.974s-26.267,1.171-60.504-2.009v-0.786l-30.417-7.356v3.053
	c-0.606-0.135-0.958-0.217-1.029-0.236c-3.727-0.857-7.577,1.527-8.456,5.216c-0.438,1.822-0.138,3.708,0.842,5.302
	c0.988,1.609,2.537,2.731,4.37,3.173c0.438,0.101,1.931,0.449,4.277,0.943v2.99l30.417,2.694v-0.733
	c0.827,0.101,1.673,0.202,2.544,0.299c5.298,0.595,10.582,1.066,15.682,1.392l1.658,0.094c2.069,0.127,4.157,0.232,6.301,0.311
	l2.185,0.082c2.69,0.079,5.399,0.135,8.135,0.135c33.616,0,58.963-6.559,75.318-19.495c14.286-11.289,21.538-27.154,21.538-47.157
	C434.456,270.881,428.727,252.472,416.435,241.276z"/>
<circle style="fill:#5A5A5A;" cx="233.823" cy="349.331" r="42.611"/>
<circle style="fill:#717171;" cx="233.823" cy="349.331" r="14.859"/>
<path style="fill:#5A5A5A;" d="M222.201,349.349c0-6.432,5.205-11.641,11.641-11.641c6.425,0,11.626,5.212,11.626,11.641
	c0,6.421-5.205,11.629-11.626,11.629C227.402,360.979,222.201,355.77,222.201,349.349z"/>
<path style="fill:#525252;" d="M227.645,343.505c2.952-2.96,7.184-3.502,9.455-1.224c2.279,2.275-8.389,12.969-10.664,10.686
	C224.15,350.689,224.7,346.45,227.645,343.505z"/>
<g>
	<path style="fill:#676767;" d="M209.905,347.639c0-12.262,9.946-22.211,22.211-22.211v-10.511
		c-18.073,0-32.718,14.645-32.718,32.718c0,0.06,0.007,0.116,0.007,0.172h10.526C209.928,347.755,209.905,347.699,209.905,347.639z"
		/>
	<path style="fill:#676767;" d="M209.905,350.812c0,12.262,9.946,22.204,22.211,22.204v10.511c-18.073,0-32.718-14.638-32.718-32.71
		c0-0.067,0.007-0.12,0.007-0.18h10.526C209.928,350.689,209.905,350.745,209.905,350.812z"/>
	<path style="fill:#676767;" d="M257.527,347.639c0-12.262-9.946-22.211-22.211-22.211v-10.511
		c18.065,0,32.718,14.645,32.718,32.718c0,0.06-0.007,0.116-0.007,0.172h-10.518C257.512,347.755,257.527,347.699,257.527,347.639z"
		/>
	<path style="fill:#676767;" d="M257.527,350.812c0,12.262-9.946,22.204-22.211,22.204v10.511c18.065,0,32.718-14.638,32.718-32.71
		c0-0.067-0.007-0.12-0.007-0.18h-10.518C257.512,350.689,257.527,350.745,257.527,350.812z"/>
</g>
<g>
</g>
<g>
</g>
<g>
</g>
<g>
</g>
<g>
</g>
<g>
</g>
<g>
</g>
<g>
</g>
<g>
</g>
<g>
</g>
<g>
</g>
<g>
</g>
<g>
</g>
<g>
</g>
<g>
</g>
</svg>
