<?xml version="1.0" encoding="iso-8859-1"?>
<!-- Generator: Adobe Illustrator 19.0.0, SVG Export Plug-In . SVG Version: 6.00 Build 0)  -->
<svg version="1.1" id="Layer_1" xmlns="http://www.w3.org/2000/svg" xmlns:xlink="http://www.w3.org/1999/xlink" x="0px" y="0px"
	 viewBox="0 0 473.931 473.931" style="enable-background:new 0 0 473.931 473.931;" xml:space="preserve">
<circle style="fill:#357180;" cx="236.966" cy="236.966" r="236.966"/>
<path style="fill:#CAD8D4;" d="M254.155,63.891h-6.548V53.784c0-9.889-17.167-9.889-17.167,0v10.106h-9.538v13.096h9.538v25.975
	c0,9.886,17.167,9.886,17.167,0V76.987h6.548V63.891z"/>
<path style="fill:#D4DFDC;" d="M239.027,46.372c-4.296-0.007-8.587,2.466-8.587,7.409v10.106h-9.538v13.096h9.538v25.975
	c0,4.606,4.599,7.068,8.58,7.379L239.027,46.372z"/>
<path style="fill:#5A5A5A;" d="M206.972,78.656c-5.601,0-5.601-16.441,0-16.441l14.522,1.272v13.901L206.972,78.656z"/>
<path style="fill:#DFBB26;" d="M248.479,95.007v-9.65h-18.915v9.59c-22.799,3.195-43.21,24.437-43.21,46.282v252.045
	c0,23.143,104.769,23.143,104.769,0V141.229C291.124,119.568,271.053,98.367,248.479,95.007z"/>
<path style="fill:#EDC92C;" d="M239.02,85.357h-9.455v9.59c-22.799,3.195-43.21,24.437-43.21,46.282v252.045
	c0,11.483,25.803,17.354,51.797,17.354L239.02,85.357z"/>
<circle style="fill:#959595;" cx="239.132" cy="55.778" r="5.205"/>
<circle style="fill:#CAD8D4;" cx="239.132" cy="55.778" r="4.108"/>
<circle style="fill:#959595;" cx="239.132" cy="55.778" r="2.073"/>
<g>
	<path style="fill:#444545;" d="M218.938,67.4c-0.022,0-0.041,0-0.06-0.004l-12.666-0.868c-0.479-0.034-0.842-0.453-0.804-0.935
		c0.034-0.475,0.46-0.827,0.928-0.804l12.662,0.868c0.479,0.03,0.846,0.453,0.808,0.932C219.78,67.049,219.394,67.4,218.938,67.4z"
		/>
	<path style="fill:#444545;" d="M206.28,76.13c0.019,0,0.037,0,0.06,0l12.662-0.876c0.479-0.03,0.846-0.445,0.808-0.928
		c-0.037-0.479-0.464-0.831-0.928-0.812l-12.666,0.876c-0.479,0.03-0.842,0.445-0.804,0.928
		C205.441,75.778,205.819,76.13,206.28,76.13z"/>
	<path style="fill:#444545;" d="M206.208,71.509c0.022,0,0.041,0.004,0.06,0l12.696-0.034c0.483,0,0.868-0.393,0.861-0.876
		c0-0.479-0.408-0.857-0.872-0.868l-12.688,0.037c-0.486,0-0.872,0.393-0.868,0.876C205.393,71.101,205.752,71.475,206.208,71.509z"
		/>
</g>
<g>
</g>
<g>
</g>
<g>
</g>
<g>
</g>
<g>
</g>
<g>
</g>
<g>
</g>
<g>
</g>
<g>
</g>
<g>
</g>
<g>
</g>
<g>
</g>
<g>
</g>
<g>
</g>
<g>
</g>
</svg>
