<?xml version="1.0" encoding="iso-8859-1"?>
<!-- Generator: Adobe Illustrator 19.0.0, SVG Export Plug-In . SVG Version: 6.00 Build 0)  -->
<svg version="1.1" id="Layer_1" xmlns="http://www.w3.org/2000/svg" xmlns:xlink="http://www.w3.org/1999/xlink" x="0px" y="0px"
	 viewBox="0 0 512 512" style="enable-background:new 0 0 512 512;" xml:space="preserve">
<circle style="fill:#FFEDB5;" cx="256" cy="256" r="256"/>
<path style="fill:#FEE187;" d="M512,256c0-8.913-0.459-17.718-1.346-26.398L356.676,75.624L247.88,109.051l-33.427-33.427
	l-37.081,26.831l-1.245-2.286h-41.481l-26.903,26.902v25.033v45.284v143.207l-22.411,29.841L225.028,510.13
	C235.182,511.353,245.515,512,256,512C397.384,512,512,397.384,512,256z"/>
<path style="fill:#386895;" d="M348.189,71.452h-24.014c-5.932,0-10.742,4.81-10.742,10.74v3.141h-96.727v-3.141
	c0-5.932-4.808-10.74-10.742-10.74h-24.014c-5.932,0-10.742,4.81-10.742,10.74v10.111h-17.808
	c-30.625,0-55.541,29.446-55.541,65.639v155.465h10.211V157.943c0-29.541,20.335-53.572,45.33-53.572h17.808v36.993
	c0,5.932,4.81,10.74,10.742,10.74h24.014c5.932,0,10.742-4.81,10.742-10.74v-27.586h96.727v27.586c0,5.932,4.81,10.74,10.742,10.74
	h24.014c5.932,0,10.742-4.81,10.742-10.74V82.192C358.931,76.26,354.121,71.452,348.189,71.452z"/>
<path style="fill:#273B7A;" d="M348.189,71.452h-24.014c-5.932,0-10.742,4.81-10.742,10.74v3.141h-51.112v28.444h51.112v27.586
	c0,5.932,4.81,10.74,10.742,10.74h24.014c5.932,0,10.742-4.81,10.742-10.74V82.192C358.931,76.26,354.121,71.452,348.189,71.452z"/>
<path style="fill:#38C6D9;" d="M256,395.912H131.92v-206.8c0-34.264,27.776-62.04,62.04-62.04l0,0
	c34.264,0,62.04,27.776,62.04,62.04V395.912z"/>
<g>
	<rect x="131.913" y="200.387" style="fill:#02B2B2;" width="124.08" height="48.88"/>
	<rect x="131.913" y="367.761" style="fill:#02B2B2;" width="124.08" height="48.88"/>
	<path style="fill:#02B2B2;" d="M120.661,370.435H85.333v-58.878c0-9.756,7.908-17.663,17.663-17.663l0,0
		c9.756,0,17.663,7.908,17.663,17.663v58.878H120.661z"/>
	<path style="fill:#02B2B2;" d="M398.222,395.912h-124.08v-206.8c0-34.264,27.776-62.04,62.04-62.04l0,0
		c34.264,0,62.04,27.776,62.04,62.04V395.912z"/>
</g>
<g>
	<rect x="274.135" y="200.387" style="fill:#386895;" width="124.08" height="48.88"/>
	<rect x="274.135" y="367.761" style="fill:#386895;" width="124.08" height="48.88"/>
</g>
<g>
</g>
<g>
</g>
<g>
</g>
<g>
</g>
<g>
</g>
<g>
</g>
<g>
</g>
<g>
</g>
<g>
</g>
<g>
</g>
<g>
</g>
<g>
</g>
<g>
</g>
<g>
</g>
<g>
</g>
</svg>
